<svg xmlns="http://www.w3.org/2000/svg" xmlns:xlink="http://www.w3.org/1999/xlink" viewBox="0 0 100.04 183.08"><defs><style>.cls-1{fill:url(#linear-gradient);}.cls-2{fill:url(#linear-gradient-2);}.cls-3{fill:url(#linear-gradient-3);}.cls-4{fill:url(#linear-gradient-4);}.cls-5{fill:url(#linear-gradient-5);}.cls-6{fill:url(#新建渐变色板__副本);}.cls-7{fill:url(#linear-gradient-6);}.cls-8{fill:url(#linear-gradient-7);}.cls-9{fill:url(#linear-gradient-8);}.cls-10{fill:url(#linear-gradient-9);}.cls-11{fill:url(#linear-gradient-10);}.cls-12{fill:url(#linear-gradient-11);}.cls-13{fill:url(#linear-gradient-12);}.cls-14{fill:url(#linear-gradient-13);}.cls-15{fill:url(#linear-gradient-14);}.cls-16{fill:url(#linear-gradient-15);}.cls-17{fill:url(#linear-gradient-16);}.cls-18{fill:url(#linear-gradient-17);}.cls-19{fill:url(#linear-gradient-18);}.cls-20{fill:url(#linear-gradient-19);}.cls-21{fill:url(#linear-gradient-20);}.cls-22{fill:url(#linear-gradient-22);}.cls-23{fill:#fff;}.cls-24{fill:url(#linear-gradient-23);}.cls-25{fill:url(#linear-gradient-24);}.cls-26{fill:url(#linear-gradient-25);}.cls-27{fill:url(#linear-gradient-26);}.cls-28{fill:url(#linear-gradient-27);}.cls-29{fill:url(#新建渐变色板__副本_2);}.cls-30{fill:url(#linear-gradient-28);}.cls-31{fill:url(#linear-gradient-29);}.cls-32{fill:url(#linear-gradient-30);}.cls-33{fill:url(#linear-gradient-31);}.cls-34{fill:url(#linear-gradient-32);}</style><linearGradient id="linear-gradient" x1="105.83" y1="74.35" x2="67.33" y2="23.22" gradientUnits="userSpaceOnUse"><stop offset="0" stop-color="#fcfbff"/><stop offset="0.48" stop-color="#f5ede9"/><stop offset="1" stop-color="#a5adbe"/></linearGradient><linearGradient id="linear-gradient-2" x1="-0.02" y1="126.12" x2="35.3" y2="60.94" xlink:href="#linear-gradient"/><linearGradient id="linear-gradient-3" x1="-3.63" y1="115.01" x2="28.61" y2="75.59" xlink:href="#linear-gradient"/><linearGradient id="linear-gradient-4" x1="103.63" y1="131.83" x2="21.9" y2="138.15" xlink:href="#linear-gradient"/><linearGradient id="linear-gradient-5" x1="106.06" y1="165.67" x2="-66.09" y2="34.19" xlink:href="#linear-gradient"/><linearGradient id="新建渐变色板__副本" x1="96.35" y1="360.01" x2="-17.96" y2="-88.76" xlink:href="#linear-gradient"/><linearGradient id="linear-gradient-6" x1="50.3" y1="109.87" x2="14.96" y2="85.59" gradientUnits="userSpaceOnUse"><stop offset="0" stop-color="#fcfbff"/><stop offset="0.22" stop-color="#f5ede9"/><stop offset="1" stop-color="#a5adbe"/></linearGradient><linearGradient id="linear-gradient-7" x1="44.42" y1="95.94" x2="37.86" y2="70.17" gradientUnits="userSpaceOnUse"><stop offset="0" stop-color="#af3e5e"/><stop offset="0.96" stop-color="#000741"/></linearGradient><linearGradient id="linear-gradient-8" x1="90.05" y1="8.18" x2="13.84" y2="23.76" xlink:href="#linear-gradient"/><linearGradient id="linear-gradient-9" x1="19.95" y1="41.93" x2="61.73" y2="0.38" xlink:href="#linear-gradient"/><linearGradient id="linear-gradient-10" x1="36.51" y1="23.26" x2="36.51" y2="11.86" xlink:href="#linear-gradient"/><linearGradient id="linear-gradient-11" x1="62.26" y1="2.8" x2="27.19" y2="37.86" gradientUnits="userSpaceOnUse"><stop offset="0" stop-color="#fbc19e"/><stop offset="0.48" stop-color="#ffb699"/><stop offset="1" stop-color="#f47e6d"/></linearGradient><linearGradient id="linear-gradient-12" x1="60.9" y1="26.7" x2="47.11" y2="6.96" xlink:href="#linear-gradient-11"/><linearGradient id="linear-gradient-13" x1="68.08" y1="1.23" x2="19.14" y2="50.16" xlink:href="#linear-gradient-7"/><linearGradient id="linear-gradient-14" x1="52.55" y1="27.84" x2="52.55" y2="27.84" xlink:href="#linear-gradient-7"/><linearGradient id="linear-gradient-15" x1="51.57" y1="4.92" x2="51.57" y2="4.92" xlink:href="#linear-gradient-7"/><linearGradient id="linear-gradient-16" x1="30.67" y1="25.87" x2="69.91" y2="8.15" xlink:href="#linear-gradient-7"/><linearGradient id="linear-gradient-17" x1="36.51" y1="14.21" x2="36.51" y2="29.02" xlink:href="#linear-gradient"/><linearGradient id="linear-gradient-18" x1="41.54" y1="46.84" x2="43.51" y2="30.75" xlink:href="#linear-gradient"/><linearGradient id="linear-gradient-19" x1="35.11" y1="34.19" x2="35.11" y2="17.65" xlink:href="#linear-gradient"/><linearGradient id="linear-gradient-20" x1="35.11" y1="34.19" x2="35.11" y2="17.65" xlink:href="#linear-gradient"/><linearGradient id="linear-gradient-22" x1="32.73" y1="56.68" x2="43.9" y2="28.31" xlink:href="#linear-gradient"/><linearGradient id="linear-gradient-23" x1="170.85" y1="98.39" x2="6.6" y2="52.46" xlink:href="#linear-gradient"/><linearGradient id="linear-gradient-24" x1="9.2" y1="88.31" x2="12.56" y2="83.18" xlink:href="#linear-gradient"/><linearGradient id="linear-gradient-25" x1="7.94" y1="87.48" x2="11.29" y2="82.34" xlink:href="#linear-gradient-6"/><linearGradient id="linear-gradient-26" x1="312.86" y1="105.49" x2="329.18" y2="89.17" gradientTransform="translate(-292.31 -56.69)" xlink:href="#linear-gradient-6"/><linearGradient id="linear-gradient-27" x1="52.07" y1="53.37" x2="-40.72" y2="105.68" xlink:href="#linear-gradient-6"/><linearGradient id="新建渐变色板__副本_2" x1="65.45" y1="69.33" x2="18.37" y2="60.75" xlink:href="#linear-gradient-7"/><linearGradient id="linear-gradient-28" x1="119.2" y1="61.91" x2="96.3" y2="73.09" gradientTransform="matrix(1, -0.06, 0.06, 1, -72.12, 1.81)" xlink:href="#linear-gradient-7"/><linearGradient id="linear-gradient-29" x1="33.15" y1="92.84" x2="33.15" y2="53.61" xlink:href="#linear-gradient-6"/><linearGradient id="linear-gradient-30" x1="34.11" y1="70.06" x2="28.19" y2="101.45" xlink:href="#linear-gradient-6"/><linearGradient id="linear-gradient-31" x1="51.89" y1="66.53" x2="30.84" y2="78.31" xlink:href="#linear-gradient-7"/><linearGradient id="linear-gradient-32" x1="78.86" y1="-7.42" x2="65.44" y2="18.64" xlink:href="#linear-gradient-7"/></defs><title>资源 4</title><g id="图层_2" data-name="图层 2"><g id="图层_1-2" data-name="图层 1"><path class="cls-1" d="M50.4,32.87S83.88,33.65,85,20.65c.62-7.13-4.38-10.23-7.43-11.45a3.54,3.54,0,0,1-2.25-3.28h0a3.53,3.53,0,0,1,4.52-3.38C87.87,5,104.38,11.9,99,32.87,93,55.89,54.36,54.72,54.36,54.72"/><path class="cls-2" d="M7.53,54.72H44.62a1,1,0,0,1,1,1v44.43a1,1,0,0,1-1,1H39.56a33,33,0,0,1-33-33V55.74A1,1,0,0,1,7.53,54.72Z"/><path class="cls-3" d="M11.06,61.84H39.5a.78.78,0,0,1,.78.78V96.69a.78.78,0,0,1-.78.78H35.62A25.34,25.34,0,0,1,10.28,72.14V62.62a.78.78,0,0,1,.78-.78Z"/><path class="cls-4" d="M58.37,179.89l-3.44-2.66a4.81,4.81,0,0,1-1.7-5.15c3.1-10.84,13.35-47.87,18.89-82h-45s13.46,69.34,18.55,90.1a3.83,3.83,0,0,0,3.72,2.91h7.89A1.78,1.78,0,0,0,58.37,179.89Z"/><path class="cls-5" d="M72.12,90.07c3.56-26.71-15.83-53.43-15.83-53.43L29.84,38.31C31.46,52,27.12,90.07,27.12,90.07h0S20.67,150.33,8,179a2.92,2.92,0,0,0,2.67,4.1H23.15a1.26,1.26,0,0,0,.91-2.12l-1.16-1.22a4.49,4.49,0,0,1,0-6.12c10.33-11.31,45.46-51.82,49.27-83.55Z"/><path class="cls-6" d="M29.84,38.31C31.46,52,27.12,90.07,27.12,90.07S20.67,150.33,8,179a2.92,2.92,0,0,0,2.67,4.1h7.87c-3.36-1-5.93-2.52-4.74-6.87s18-28.82,35.8-61.39S55.47,56,52.55,47.75s4.71-9.44,4.71-9.44l-.54-1.06-.43-.61Z"/><path class="cls-7" d="M27.12,90.07S26,100.48,23.8,114.7h0c4-16.57,22.52-30.61,22.52-30.61L28.08,80.85C27.54,86.37,27.12,90.07,27.12,90.07Z"/><path class="cls-8" d="M37.6,78.23a22.52,22.52,0,0,1,6,1.64c2.8,1.29,6.26,1,5.37,3.16s-15.64,1.16-15.64,1.16"/><path class="cls-9" d="M56.53,5.09S51.69-2.75,40.83,1C28.1,5.46,29.94,32.87,29.94,32.87H54.38S52.79,28.6,55.67,28s-4.85-20.7-4.85-20.7"/><path class="cls-10" d="M56.29,25.76c-.41-5.34-5.47-18.49-5.47-18.49l1.81-.69-.08-.06C39.14-2.31,33.71,8,33.49,8.43c-4.55,9.6-3.55,24.44-3.55,24.44H44.6c-.75,0-6.7-.6-3.26-3.14s13.32-1.68,13.32-1.68Z"/><circle class="cls-11" cx="36.51" cy="15.29" r="2.62"/><path class="cls-12" d="M57.22,8.22a15,15,0,0,1,1.71,5.92,1.28,1.28,0,0,1-1.28,1.36h0a.9.9,0,0,0-.89.77c-.19,1.33-.76,4-2.29,4.52-2.08.72-8.61,1.14-9.75-5.18C43.71,10,49.1,2.78,54.47,5.45A6.35,6.35,0,0,1,57.22,8.22Z"/><path class="cls-13" d="M57.65,15.5a1.19,1.19,0,0,0,.54-.12c-.2.08-.63-.14-.24-1.19s-.68-4.2-.68-4.2a1.89,1.89,0,0,0,.66-.2c-.24-.6-.49-1.13-.71-1.57A7,7,0,0,0,56,6.52L46.83,8.14,45,16.55c1.14,3.81,4.5,4.69,7,4.63,1.59-2.1,3.13-4.66,1.26-4.76-3.19-.18-2.5-4.89.47-4.72s2.57,3.82,2.57,3.82l1.09,0h0a1.09,1.09,0,0,1,.26,0Z"/><path class="cls-14" d="M57.39,15.54s-4.31-.43-4.89,2.09c-.51,2.18-5.29.77-4.94-3.18.37-4.26,2.77-5.45,7.75-5.33S60.7,7,58.4,5.76,52,4.61,50.28,5.21,42.52,8.53,43.53,18,54.72,29.13,57,27.5,56.48,16.8,57.39,15.54Z"/><polygon class="cls-15" points="52.55 27.84 52.55 27.84 52.55 27.84 52.55 27.84"/><polygon class="cls-16" points="51.57 4.92 51.57 4.92 51.57 4.92 51.57 4.92"/><path class="cls-17" d="M57.39,15.54s-4.31-.42-4.89,2.09a1.37,1.37,0,0,1-1.44,1,3.06,3.06,0,0,1-1.25-.27,4,4,0,0,1-.46-.24A3.79,3.79,0,0,1,48.16,17l-.11-.19a1.71,1.71,0,0,1-.14-.27,3.09,3.09,0,0,1-.14-.32,4.15,4.15,0,0,1-.23-1.4c0-.12,0-.24,0-.37h0c.35-4,2.54-5.32,7-5.34l-2.84-.4a1.93,1.93,0,0,1-.17-3.79h0l-.3,0-.12,0-.23,0-.17,0-.16,0-.31.1A9.44,9.44,0,0,0,48.66,6a8,8,0,0,0-.9.58c-.21.15-.42.31-.63.49l-.31.27-.63.63C44.45,9.85,43,13,43.53,18c0,.26.07.52.11.77l0,.18c0,.25.09.49.15.72v0c.06.22.12.44.19.65,0,.05,0,.11,0,.16.07.22.15.44.23.65l0,.07c.08.19.16.37.25.55l.06.14.3.57a.35.35,0,0,1,.05.08l.3.48.08.12c.11.17.23.33.35.49l.07.09c.11.14.22.27.34.4l.08.1.41.43.09.09.36.33.09.08.44.37.1.07c.13.1.26.2.4.29l.09.06a4.53,4.53,0,0,0,.46.3l.11.07.41.23.09.05.48.24.12.06.42.18.08,0,.48.18.13.05.43.14.07,0,.47.13.13,0,.43.1h0c-1.9-.44-1.67-2.48,1.63-3s1.63-3.7,1.2-6.57S57.38,15.54,57.39,15.54Z"/><circle class="cls-18" cx="36.51" cy="14.52" r="2.62"/><path class="cls-19" d="M29.25,32.87H55.54a1.19,1.19,0,0,1,1.07.67l1.59,3.27a1,1,0,0,1-.94,1.5H28.17a1,1,0,0,1-1-1.33l.95-3.25A1.18,1.18,0,0,1,29.25,32.87Z"/><rect class="cls-20" x="33.89" y="19.91" width="2.44" height="0.74" rx="0.37"/><rect class="cls-21" x="33.89" y="21.8" width="2.44" height="0.74" rx="0.37"/><rect class="cls-21" x="33.89" y="23.69" width="2.44" height="0.74" rx="0.37"/><path class="cls-22" d="M28.11,33.73,27.16,37a1,1,0,0,0,1,1.33H42.41c-4.17-.5-1.25-1.58,6.89-2.42,9.26-1,5.08-3,5.08-3H29.25A1.18,1.18,0,0,0,28.11,33.73Z"/><rect class="cls-23" x="44.88" y="47.01" width="2.44" height="0.74" rx="0.37"/><rect class="cls-23" x="44.88" y="48.9" width="2.44" height="0.74" rx="0.37"/><rect class="cls-23" x="44.88" y="50.79" width="2.44" height="0.74" rx="0.37"/><path class="cls-24" d="M29,32.89S1.5,34.92,0,61c-1.2,21.47,26.43,23.64,36.28,23.74a3.4,3.4,0,0,0,3.43-3.39h0a3.39,3.39,0,0,0-2.64-3.31C30.63,76.6,14.59,72,16.1,63c1.73-10.37,13.25-8.23,20.43-10.38C44.61,50.19,43.57,32.16,29,32.89Z"/><path class="cls-25" d="M32,53.49h0Z"/><path class="cls-26" d="M16.07,63.18l0-.2c1.23-7.39,7.44-8.43,13.51-9.19a12.31,12.31,0,0,1,2.35-.3c-.58,0-14,.11-20.61,8.32C5.92,68.6-1.47,64.58,1.06,54.44A32.73,32.73,0,0,0,0,61c-1.2,21.47,26.43,23.64,36.28,23.74a3.41,3.41,0,0,0,3.39-2.9l0-.49S6.54,77.09,16.07,63.18Z"/><rect class="cls-27" x="23.89" y="38.77" width="5.49" height="7.86" rx="2.74" transform="translate(-9.55 7.72) rotate(-14.02)"/><path class="cls-28" d="M43.6,76.07A5.72,5.72,0,0,0,49,72.31a17.76,17.76,0,0,0,1-6c0-9.5-10.36-17.2-19.53-17.2s-16.59,7.7-16.59,17.2v.11a9.79,9.79,0,0,0,9.84,9.65Z"/><path class="cls-29" d="M49,72.31a15.12,15.12,0,0,0,.52-1.74h0a18,18,0,0,0,.39-2.07v-.08c0-.29.07-.59.09-.89,0-.08,0-.15,0-.23q0-.49,0-1c0-4.75-2.59-9-6.32-12.15a11,11,0,0,0-7-2.63h0A13.89,13.89,0,0,0,23,65.6v.13A10.52,10.52,0,0,0,33.57,76.07H44l.21,0,.22,0,.31-.06.11,0,.36-.1h0l.38-.14h0a6.5,6.5,0,0,0,1.11-.58h0a.25.25,0,0,1,.1-.08A5.58,5.58,0,0,0,49,72.31Z"/><path class="cls-30" d="M45.61,65.66h0A1.54,1.54,0,0,1,44,64.42a10.82,10.82,0,0,0-3.53-5.76,1.53,1.53,0,0,1-.21-2h0a1.53,1.53,0,0,1,2.23-.24A13.87,13.87,0,0,1,47,63.84,1.52,1.52,0,0,1,45.61,65.66Z"/><path class="cls-31" d="M48.07,78.23H18.23a2,2,0,0,1-2-2h0a2,2,0,0,1,2-2H48.07a2,2,0,0,1,2,2h0A2,2,0,0,1,48.07,78.23Z"/><path class="cls-32" d="M48.07,74.24H18a.92.92,0,0,0,0,1.81H48.28a.92.92,0,0,0,0-1.81Z"/><circle class="cls-33" cx="45.64" cy="70.03" r="1.81"/><path class="cls-34" d="M79.45,2.45a26,26,0,0,0-9.1-.35c-5.2.69-8,2.88-5.07,3.67s6.89.86,6.47,2.24,5.1.81,6.26,1.37S81.58,4.05,79.45,2.45Z"/></g></g></svg>