<svg xmlns="http://www.w3.org/2000/svg" xmlns:xlink="http://www.w3.org/1999/xlink" viewBox="0 0 80.64 182.49"><defs><style>.cls-1{fill:url(#linear-gradient);}.cls-2{fill:#4f0800;}.cls-3{fill:url(#linear-gradient-2);}.cls-4{fill:#917252;}.cls-5{fill:url(#linear-gradient-3);}.cls-6{fill:url(#linear-gradient-4);}.cls-7{fill:#f9aa8f;}.cls-8{fill:url(#linear-gradient-5);}.cls-9{fill:url(#linear-gradient-6);}.cls-10{fill:url(#linear-gradient-7);}.cls-11{fill:url(#linear-gradient-8);}.cls-12{fill:url(#linear-gradient-9);}.cls-13{fill:#e8cd2d;}.cls-14{fill:#4b71ea;}.cls-15{fill:url(#linear-gradient-10);}.cls-16{fill:#303030;}.cls-17{fill:url(#linear-gradient-11);}.cls-18{fill:url(#linear-gradient-12);}</style><linearGradient id="linear-gradient" x1="57.81" y1="75.18" x2="57.81" y2="-4.85" gradientUnits="userSpaceOnUse"><stop offset="0" stop-color="#fff"/><stop offset="0.84" stop-color="#cddfec"/></linearGradient><linearGradient id="linear-gradient-2" x1="-1.44" y1="161.38" x2="30.23" y2="98.63" gradientUnits="userSpaceOnUse"><stop offset="0.27" stop-color="#8f3c00"/><stop offset="1" stop-color="#601a00"/></linearGradient><linearGradient id="linear-gradient-3" x1="39.77" y1="166.65" x2="43.23" y2="63.32" xlink:href="#linear-gradient-2"/><linearGradient id="linear-gradient-4" y1="52.49" x2="33.41" y2="52.49" gradientUnits="userSpaceOnUse"><stop offset="0" stop-color="#4b71ea"/><stop offset="1" stop-color="#2c0fa5"/></linearGradient><linearGradient id="linear-gradient-5" x1="13.75" y1="17.81" x2="46.71" y2="23.79" gradientUnits="userSpaceOnUse"><stop offset="0" stop-color="#fbc19e"/><stop offset="0.48" stop-color="#ffb699"/><stop offset="1" stop-color="#f47e6d"/></linearGradient><linearGradient id="linear-gradient-6" x1="21.06" y1="46.14" x2="38.36" y2="19.13" xlink:href="#linear-gradient-4"/><linearGradient id="linear-gradient-7" x1="40.75" y1="17.34" x2="40.92" y2="17.37" xlink:href="#linear-gradient-5"/><linearGradient id="linear-gradient-8" x1="20.42" y1="94.83" x2="55.18" y2="3.94" gradientUnits="userSpaceOnUse"><stop offset="0.01" stop-color="#ffc00f"/><stop offset="0.49" stop-color="#ff9c0f"/><stop offset="1" stop-color="#ff5d0f"/></linearGradient><linearGradient id="linear-gradient-9" x1="-5.68" y1="118.89" x2="58.66" y2="18.49" xlink:href="#linear-gradient-8"/><linearGradient id="linear-gradient-10" x1="51.46" y1="44.46" x2="71.47" y2="30.93" xlink:href="#linear-gradient-4"/><linearGradient id="linear-gradient-11" x1="46.81" y1="-11.82" x2="10.65" y2="34.27" xlink:href="#linear-gradient-8"/><linearGradient id="linear-gradient-12" x1="20.9" y1="26.35" x2="39.62" y2="-5.82" xlink:href="#linear-gradient-8"/></defs><title>建筑工人</title><g id="图层_2" data-name="图层 2"><g id="图层_1-2" data-name="图层 1"><path class="cls-1" d="M77.85,32.15a77.57,77.57,0,0,0,.64-11.77A1.78,1.78,0,0,0,75.65,19c-3.92,3-11.58,7.58-18.38,4.63-9.65-4.17-20.15,3-20.15,3V57.91S55.83,45.8,62,50.27s12.7-4.16,12.7-4.16"/><path class="cls-2" d="M41,178.46l-.83,2.75a1,1,0,0,0,1,1.28h5.8a1,1,0,0,0,.63-1.77l-2.79-2.26Z"/><path class="cls-2" d="M8,178.46l-.85,2.83a.92.92,0,0,0,.88,1.2h6.09a.93.93,0,0,0,.58-1.65l-2.93-2.38Z"/><path class="cls-3" d="M16.76,80.16s-1,58.35-8.8,98.51h4.29a.62.62,0,0,0,.59-.42c1.91-5.85,22.84-70.34,27.38-102.77C44.87,42.26,16.76,80.16,16.76,80.16Z"/><polygon class="cls-4" points="39.56 10.64 39.56 10.63 39.56 10.63 39.56 10.64"/><path class="cls-5" d="M53.8,72.5S46.05,117.79,45,178.67H40.81a.67.67,0,0,1-.67-.58c-.86-6.45-8.61-64.82-8.61-89.55C31.53,62.34,53.8,72.5,53.8,72.5Z"/><path class="cls-6" d="M24,28.41S5.48,40,.49,59.47c-3.74,14.6,15,17.11,15,17.11l2.36-5.08s-9.7-1.56-3.41-11.17,23.63-8,17.78-22.22C28.55,29.19,24,28.41,24,28.41Z"/><path class="cls-7" d="M12.89,75.37l-.25.23a3.09,3.09,0,0,0-.46,4.12h0a3.08,3.08,0,0,0,4.58.46l2.13-2a3.09,3.09,0,0,0,.61-3.77l-1.1-2.29A2.64,2.64,0,0,0,16.49,71c-1.2-.3-2.74-.3-2.56,1.83A3,3,0,0,1,12.89,75.37Z"/><path class="cls-7" d="M38,24.33a1.27,1.27,0,0,1,.88-1.54l1-.28a2.14,2.14,0,0,0,1.42-2.37l-.55-3.52a2.15,2.15,0,0,1,1.12-2.24,2.16,2.16,0,0,0,.91-3L37.42,3.05,26.56,7.48c-3,1.23-3.64,4.88-1.66,7.46a15.07,15.07,0,0,1,2.91,5.43c.54,5.86-5.63,9.44-5.63,9.44L22,33.41l5.76,16.86,8-10.43L43,28.61A5.16,5.16,0,0,1,38,24.33Z"/><path class="cls-8" d="M38.48,28.55c-3.24,1.08-5.21.18-5.07-2.34s6.15-3.62,6.15-3.62h0c-2.15.51-3.09-2.44-1.63-4.47s-1-5.86.67-6.1c1.2-.18,1.86,2.86,2.11,4.43a2.13,2.13,0,0,1,1.13-2.07.65.65,0,0,0,.15-.1c-.28.16-.77.35-.74-.31.06-.93-2-2.81-.72-3.82a3.07,3.07,0,0,0,.8-1L39.54,6.38,32.48,9.84l-5.33,8.31-.1.18a9.8,9.8,0,0,1,.76,2c.54,5.86-5.63,9.44-5.63,9.44L22,33.41l.73,2.13,9.61.78S41.72,27.47,38.48,28.55Z"/><path class="cls-9" d="M24.07,28.41a6.86,6.86,0,0,0,1.63-2.55,1.52,1.52,0,0,1,1.28-1c2.11-.21,7-.59,9.6.11.65.18,1.2.35,1.64.5a4.05,4.05,0,0,1,2.28,1.82,2.88,2.88,0,0,0,.85.89C42.51,29,32.71,35,32.71,35l-8.87,1.49-2.57-1.46-.19-3.18"/><polygon class="cls-10" points="40.84 17.36 40.84 17.36 40.84 17.36 40.84 17.36"/><path class="cls-11" d="M56.39,60.16v0l-.93-6.62L52.2,33.41c-7.68-9.15-14.53-5.6-18.89-1.08-1.54,1.6-4.87,2.41-7.56,2.05a3.22,3.22,0,0,1-2.36-4.77l.68-1.2c-2.34,1.22-4.85,1.78-6.17,3.95s-1.31,6-1.31,8.59L15.32,89.63a1.81,1.81,0,0,0,1.5,1.83c6.23,1,29.47,3.41,37.32-15.52,1.5-3.62,2.22-8.06,2.44-13.43C56.61,61.74,56.39,61,56.39,60.16Z"/><path class="cls-12" d="M45.42,33.41S37.25,53.2,26.58,53,17,42.15,24,39.37a20.83,20.83,0,0,0,9.85-7.56h0c-.18.17-.35.34-.52.52-1.54,1.6-4.87,2.41-7.56,2.05a3.22,3.22,0,0,1-2.36-4.77l.68-1.2c-2.34,1.22-4.85,1.78-6.17,3.95s-1.31,6-1.31,8.59L15.32,89.63a1.81,1.81,0,0,0,1.5,1.83c5,.81,21.15,2.53,31.3-6.79-6.38,5.79-12.65-3.41-10.87-11.6s19.16-7.84,19.16-7.84h0Z"/><path class="cls-13" d="M16,64.88c8.2.31,17.12.48,26.45.48,4.78,0,9.46,0,14-.13.07-.88.13-1.78.17-2.72,0-.77-.19-1.55-.19-2.35v0l-.93-6.62-.07-.42c-4.21.07-8.55.11-13,.11-9.21,0-18-.16-26.13-.47Z"/><path class="cls-14" d="M78.28,42.57S75.08,66.3,61.77,66.3s-17-17.15-17-27.86A19.88,19.88,0,0,1,45,35.12c1.19-7,6.07-4.95,9,.53a26.79,26.79,0,0,1,1.5,3.58c1.38,3.76,4.27,11,8.74,13a3.17,3.17,0,0,0,1.34.32c5.7,0,10.12-15.21,10.12-15.21Z"/><path class="cls-15" d="M64.23,52.26c-2.44-.46-7.6-.82-10.07,3.56L45,35.12c1.19-7,6.23-5,9,.53a27.57,27.57,0,0,1,1.5,3.58C56.8,43.15,59.76,50.2,64.23,52.26Z"/><path class="cls-16" d="M25.42,15.74a11.11,11.11,0,0,1,2.17,4.85.61.61,0,0,0,.56.54c1.73.15,7.13-1.2,7.13-7.95,0-3.82.73-4.31,1.87-3.81,1.35.59.38-2.11.54-3.56l3.21-.24L28.07,4.7Z"/><path class="cls-17" d="M26.56,16.66A52.21,52.21,0,0,0,40.5,8.45a2.24,2.24,0,0,0,.4-2.88C39,2.69,34.43-2.59,27.69,1.5c-6.42,3.89-5.33,10.36-4.19,13.74A2.32,2.32,0,0,0,26.56,16.66Z"/><path class="cls-18" d="M37.69,6.69c-.55-2.56-5.21-6.42-9.64-4.36C25.46,3.54,24,5,23.52,6c-1.52,3.34-.79,7,0,9.26a2.32,2.32,0,0,0,3.06,1.42A52.21,52.21,0,0,0,40.5,8.45a1.42,1.42,0,0,0,.12-.13C40.12,8.72,38.21,9.05,37.69,6.69Z"/><path class="cls-7" d="M78.28,42.57s-.93-2.88-3.56-2.3c0,0-.11-4,.75-5.75s1.59-1.15,2.38-2.37S80.22,29,80.58,31,79.35,41.91,78.28,42.57Z"/></g></g></svg>