<svg xmlns="http://www.w3.org/2000/svg" xmlns:xlink="http://www.w3.org/1999/xlink" viewBox="0 0 195.64 147"><defs><style>.cls-1{fill:none;}.cls-2{fill:#fbcfcd;}.cls-3{fill:#d7307f;}.cls-4{fill:#fe5fb1;}.cls-5{clip-path:url(#clip-path);}.cls-6{fill:#d972fe;}.cls-7{fill:#d23083;}.cls-8{fill:#f8bece;}.cls-9{fill:#e82e82;opacity:0.39;}.cls-10,.cls-11{fill:#e52f7e;}.cls-11{opacity:0.68;}.cls-12{fill:#e12a77;opacity:0.93;}.cls-13{fill:#ee3d6b;}.cls-14{fill:#a30556;}.cls-15{fill:#fff;}.cls-16{clip-path:url(#clip-path-2);}.cls-17{fill:#8c0650;}</style><clipPath id="clip-path"><path class="cls-1" d="M30.46,129c-.84-4.91,23.48-7.07,49.51-6.14,6,.21,12.69,7.92,18.59,8.47,10.74,1,19.21-6.12,26.85-4.35l.67,1.8L105.71,134l-67.1,7.2Z"/></clipPath><clipPath id="clip-path-2"><circle class="cls-1" cx="155.6" cy="57.95" r="21.54"/></clipPath></defs><title>恐龙5</title><g id="图层_2" data-name="图层 2"><g id="图层_1-2" data-name="图层 1"><path class="cls-2" d="M4.27,108S3.69,97.53,6,92.87s7,14.55,7,14.55Z"/><path class="cls-2" d="M15.91,106.26s-1.75-14.55.58-15.14,8.15,9.9,8.15,9.9Z"/><path class="cls-3" d="M120.68,127.79l6.4,13.39s5.82,2.91,10.48-1.75l-.59-19.2Z"/><path class="cls-4" d="M29.88,125.46l7,19.21,9.32.58s5.82-8.14,1.74-15.13Z"/><path class="cls-4" d="M76.44,42.23S36.86,40.49,25.8,94c0,0-5.23,13.39-20.37,12.81,0,0-19.2,5.24,23.87,20.37h2.32S55.49,140,81.1,134.78c0,0,37.92,3.14,61.16-16.77Z"/><g class="cls-5"><path class="cls-6" d="M75.28,42.82S35.7,41.07,24.64,94.62c0,0-5.24,13.38-20.37,12.8,0,0-19.21,5.24,23.86,20.37h2.33s23.86,12.81,49.47,7.57c0,0,37.93,3.14,61.16-16.76Z"/></g><path class="cls-7" d="M179.12,56.19,158.51,19.53s-8.73-31.43-33.76-8.14c0,0-22.12-24.45-44.23,7,0,0-9.91,9.9-7.64,28.44a50.88,50.88,0,0,0,1.23,6.48s-37.83,25,5.82,46l12.81,1.17s35.5,44.23,87.3,2.91C180,103.35,207.89,74.22,179.12,56.19Z"/><circle class="cls-8" cx="56.07" cy="91.71" r="5.24"/><ellipse class="cls-8" cx="49.38" cy="60.94" rx="2.62" ry="2.41"/><circle class="cls-9" cx="31.92" cy="89.67" r="3.78"/><ellipse class="cls-10" cx="42.97" cy="71.04" rx="7.28" ry="6.69"/><circle class="cls-10" cx="45.3" cy="86.18" r="2.62"/><circle class="cls-11" cx="39.48" cy="101.89" r="2.62"/><ellipse class="cls-12" cx="62.76" cy="53" rx="6.69" ry="3.78"/><path class="cls-4" d="M182.62,53.86,162,17.21s-8.73-31.43-33.76-8.15c0,0-22.11-24.45-44.23,7,0,0-9.91,9.91-7.64,28.44A49,49,0,0,0,77.61,51s-37.84,25,5.82,46l12.8,1.17s35.5,44.23,87.31,2.91C183.54,101,211.38,71.89,182.62,53.86Z"/><circle class="cls-13" cx="126.21" cy="89.09" r="13.68"/><path class="cls-2" d="M195.18,69.59s-2.91-22.7-8.15-22.12c0,0-9.9,11.64-10.48,18.63C176.55,66.1,184.7,79.48,195.18,69.59Z"/><path class="cls-2" d="M113.11,44s8.73,1.75,11.64-2.91c0,0-1.75-11.06-7-14.55,0,0-7,1.16-5.24,9.31Z"/><path class="cls-2" d="M151.52,32.92s5.82,4.66,10.48-2.33c0,0,0-11.06-5.24-13.38C156.76,17.21,149.2,19,151.52,32.92Z"/><path class="cls-4" d="M81.1,131.87s-1.17,9.31,4.07,13.38L94.48,147l-.58-5.24L98,132.45Z"/><path class="cls-14" d="M157.34,47.47s-28.52-20.95-36.66,22.12h7.56S131.15,39.32,157.34,47.47Z"/><circle class="cls-15" cx="147.74" cy="66.97" r="21.24"/><path class="cls-14" d="M126.5,64.35a16,16,0,0,1-3.32.84,23.81,23.81,0,0,1-3.37.28,21.37,21.37,0,0,1-3.38-.2,11.26,11.26,0,0,1-3.32-.92,40.21,40.21,0,0,1,6.68-.62c1.11,0,2.22,0,3.33.1A19.1,19.1,0,0,1,126.5,64.35Z"/><path class="cls-14" d="M127.54,61.08a19.22,19.22,0,0,1-3.39,0c-1.12-.06-2.23-.21-3.34-.38a31,31,0,0,1-3.28-.72,15.57,15.57,0,0,1-3.18-1.22,46,46,0,0,1,6.68.63A34.34,34.34,0,0,1,127.54,61.08Z"/><path class="cls-14" d="M128.37,55.66a16,16,0,0,1-4.11-2.37,18.74,18.74,0,0,1-1.77-1.57,9.22,9.22,0,0,1-1.48-1.9,30.74,30.74,0,0,1,3.93,2.6A21.38,21.38,0,0,1,128.37,55.66Z"/><circle class="cls-1" cx="159.67" cy="54.46" r="21.54"/><g class="cls-16"><circle class="cls-17" cx="147.74" cy="66.97" r="21.24"/></g><path class="cls-17" d="M190.52,91.71S175.39,87.63,170.15,76c0,0,3.49,15.13,18,18.63Z"/></g></g></svg>