<svg xmlns="http://www.w3.org/2000/svg" xmlns:xlink="http://www.w3.org/1999/xlink" viewBox="0 0 110.96 188.39"><defs><style>.cls-1{fill:#f9aa8f;}.cls-2{fill:#c9433d;}.cls-3{fill:url(#linear-gradient);}.cls-4{fill:url(#linear-gradient-2);}.cls-5{fill:url(#linear-gradient-3);}.cls-6{fill:url(#linear-gradient-4);}.cls-7{fill:#aa3529;}.cls-8{fill:url(#linear-gradient-5);}.cls-9{fill:#9d1500;}.cls-10{fill:url(#linear-gradient-6);}.cls-11{fill:#8e241c;}.cls-12{fill:url(#linear-gradient-7);}.cls-13{fill:url(#linear-gradient-8);}.cls-14{fill:url(#linear-gradient-9);}.cls-15{fill:url(#linear-gradient-10);}</style><linearGradient id="linear-gradient" x1="28.25" y1="83.63" x2="27.79" y2="29.87" gradientUnits="userSpaceOnUse"><stop offset="0.3" stop-color="#c9433d"/><stop offset="1" stop-color="#820023"/></linearGradient><linearGradient id="linear-gradient-2" x1="55.27" y1="157.81" x2="44.24" y2="117.38" gradientUnits="userSpaceOnUse"><stop offset="0.08" stop-color="#5e1a00"/><stop offset="0.45" stop-color="#5b1900"/><stop offset="0.75" stop-color="#511600"/><stop offset="1" stop-color="#421200"/></linearGradient><linearGradient id="linear-gradient-3" x1="55.99" y1="186.57" x2="83.55" y2="27.6" xlink:href="#linear-gradient-2"/><linearGradient id="linear-gradient-4" x1="56.15" y1="105.3" x2="62.12" y2="66.24" gradientUnits="userSpaceOnUse"><stop offset="0.23" stop-color="#aa3529"/><stop offset="0.75" stop-color="#64241c"/></linearGradient><linearGradient id="linear-gradient-5" x1="89.37" y1="57.09" x2="-9.27" y2="37.18" xlink:href="#linear-gradient-4"/><linearGradient id="linear-gradient-6" x1="75.01" y1="-17.91" x2="39.01" y2="24.67" gradientUnits="userSpaceOnUse"><stop offset="0" stop-color="#fbc19e"/><stop offset="0.48" stop-color="#ffb699"/><stop offset="1" stop-color="#f47e6d"/></linearGradient><linearGradient id="linear-gradient-7" x1="52.58" y1="51.77" x2="26.39" y2="43.42" gradientUnits="userSpaceOnUse"><stop offset="0.32" stop-color="#8e241c"/><stop offset="0.75" stop-color="#64241c"/></linearGradient><linearGradient id="linear-gradient-8" x1="59.54" y1="29.93" x2="33.35" y2="21.59" xlink:href="#linear-gradient-7"/><linearGradient id="linear-gradient-9" x1="64.85" y1="13.26" x2="38.66" y2="4.91" xlink:href="#linear-gradient-7"/><linearGradient id="linear-gradient-10" x1="86.27" y1="81.1" x2="85.85" y2="31.99" xlink:href="#linear-gradient"/></defs><title>资源 5</title><g id="图层_2" data-name="图层 2"><g id="图层_1-2" data-name="图层 1"><path class="cls-1" d="M13,60.08s-.24.16-1.2-3.67S7.51,50,7.72,54s-2.13.1-4.89-.22-7.12,9.48,7.44,12.4"/><path class="cls-2" d="M44.16,24s-1.29.57-9.8,23.18c-6,16-15.53,9.34-22.42,11.64S7.79,78.32,35.68,73.93C58.77,70.3,54.52,25.07,54.52,25.07"/><path class="cls-3" d="M47,66.8,38.44,53.87s-.1,4.29-1.26,6.58S32.77,58,30.47,63.82,9.21,66.15,9.21,66.15h0c1.84,5.11,9.5,10.45,26.47,7.78A17.09,17.09,0,0,0,47,66.8Z"/><path class="cls-4" d="M41,81.67s-12.38,68.84-14.76,92.74h6.29s32.75-76.84,33.72-96.3S41,81.67,41,81.67Z"/><path class="cls-5" d="M53.25,70.7s3.37,55.9,21.81,103.71h5.87s-5.54-84-1-101.29C84.35,56.38,53.25,70.7,53.25,70.7Z"/><path class="cls-6" d="M79.37,82.06s-.19,3.71.68,5.42-.93,3.18-2,2.45S55.13,94,39.79,89.06c0,0-4.62.9-1.38-3.72,2.6-3.72,3.07-9.1,3.07-9.1Z"/><path class="cls-7" d="M80.77,80.89l-.11.15c-.07.07-.13.15-.21.22l-.12.11a3.54,3.54,0,0,1-.5.41,7.73,7.73,0,0,1-3.47,1.13,31.09,31.09,0,0,1-4.37.21c-8.69-.14-12.47.77-22.83.06C40.92,82.61,36,83.84,37.75,66c1.67-16.69-.57-14.28,2-31.85,1-7.09,6.55-16.28,16.51-16.28C65.55,17.87,73,28,73,28s-6.63,3,.5,22.5c.46,1.24,1,2.54,1.53,3.91C81.8,70.7,83.13,77.84,80.77,80.89Z"/><path class="cls-8" d="M80.33,81.37l.12-.11c.08-.07.14-.15.21-.22l.11-.15c2.36-3,1-10.19-5.71-26.49C74.49,53,74,51.73,73.53,50.49,66.4,31,73,28,73,28s-5.84-7.9-13.61-9.73L42.09,48.48s33.33,9,20,21.16c-13,11.87-7.42,13.82-3.63,13.8,4.48-.08,8-.41,13.52-.32a31.09,31.09,0,0,0,4.37-.21,7.73,7.73,0,0,0,3.47-1.13A3.54,3.54,0,0,0,80.33,81.37Z"/><path class="cls-2" d="M105.49,68.06s3.29-9.17-9.17-14.3S81.46,43.27,78.73,38.11c-4.76-9-7.7-17.38-14.18-8.55C52.42,46.1,78,75.36,98.77,72.62,104.62,71.85,105.49,68.06,105.49,68.06Z"/><path class="cls-9" d="M23,180.14c-5.26,4.05-7.33,3.72-7.76,6.35-.56,3.39,9.51,1.26,13.92,1s6.73-4.09,4.08-6.22c-3.14-2.52,4.24-12.84.3-10.53-2,1.16-6.81-.87-6.81-.87S26.34,177.6,23,180.14Z"/><path class="cls-9" d="M74.42,179.3c-4.71,4.68-7.33,3.71-7.76,6.34-.56,3.39,9.51,1.27,13.92,1s6.73-4.09,4.08-6.22c-3.14-2.52-1.42-17-6.09-10.51-1.2,1.66-5,.59-5,.59S76.6,177.12,74.42,179.3Z"/><path class="cls-1" d="M40.85,2.33l-1.42,7.88a1.2,1.2,0,0,0,.87,1.36h.06a2,2,0,0,1,1.46,1.85c0,1.92.61,5.06,4,5,4.82-.11,3.22,3.33,2.07,6.78s-.58,12,4,6.43,4.6-11.84,9.54-12.75c0,0-5.29-2.87-4-7.12S51,1.07,40.85,2.33Z"/><path class="cls-10" d="M60.68,18.4c-1.41-1-4.25-3.41-3.29-6.65C58.65,7.5,51,1.07,40.85,2.33l-.41,2.26s1.85-.28,1.67,1-.43,3.16-.63,4.22-1.44,1.81-2,.85a1.21,1.21,0,0,0,.85.87h.06A2,2,0,0,1,41.7,12.8l2.19.21a5.58,5.58,0,0,1-.57-4.22c.72-2.09,6-1.23,5.94,1.81S48,13.71,47.12,13.21s.36,3.85.36,3.85l8.36,7.87.08-.16c0-1,.26-5.26,1.62-6.4A2.73,2.73,0,0,1,60.68,18.4Z"/><path class="cls-11" d="M40.36,11.58s.91,3.31-2.84,11.89S29.15,44,40.46,48.05,55.07,32.7,55.94,24.72,53.32,9.65,55.09,9.38s2.49,1.68,2.13,3.2c0,0,2.48-.79,1.89-2.9-.92-3.29-4.28-8-12.17-9.42S34.73,3.86,40.55,4,50.92,6.93,50.92,9a2,2,0,0,0,1.84,2.15s.23,6.51-3.37,3.67S43.81,11.49,40.36,11.58Z"/><path class="cls-12" d="M42.67,48.56a2.89,2.89,0,0,0-.58-.08C42.29,48.52,42.48,48.54,42.67,48.56Z"/><path class="cls-13" d="M38.12,3.33A3.57,3.57,0,0,0,40.55,4c5.82.16,10.37,2.92,10.37,5a2,2,0,0,0,1.84,2.15s.23,6.51-3.37,3.67-5.52-3.3-8.88-3.23c1.14,0,8.31.39,5.75,10.28-2.77,10.74-2.51,13.26.55,19.07,2.23,4.23.4,6.7-1.78,7.47C52.7,46.52,55.2,31.5,55.94,24.72c.88-8-2.62-15.07-.85-15.34a1.76,1.76,0,0,1,1.14.17h0C54.52,8,53.14,3.71,46.77,3.08,40.66,2.47,41.61,5.08,38.12,3.33Z"/><path class="cls-14" d="M56.64,9.86a3.07,3.07,0,0,1,.58,2.72s1.82-.58,2-2.07l-.08-.83A1.79,1.79,0,0,1,56.64,9.86Z"/><path class="cls-15" d="M98.77,72.62c5.85-.77,6.72-4.56,6.72-4.56a10.15,10.15,0,0,0-1.68-8.93c-7.35-5.57-5,8.67-9.32,8.83s-4-11.64-12.64-8.12-15.56-5.67-15.56-5.67h0C73.34,65.22,86.84,74.19,98.77,72.62Z"/><path class="cls-1" d="M102.62,63.38s11.26,2.74,7.62,11.11-6.63-4-7.55-2.78-2.83,2.51-3.13.78S100.07,62.46,102.62,63.38Z"/></g></g></svg>