<?xml version="1.0" encoding="UTF-8" standalone="no"?>
<!DOCTYPE svg PUBLIC "-//W3C//DTD SVG 1.1//EN" "http://www.w3.org/Graphics/SVG/1.1/DTD/svg11.dtd">
<svg width="100%" height="100%" viewBox="0 0 200 200" version="1.1" xmlns="http://www.w3.org/2000/svg" xmlns:xlink="http://www.w3.org/1999/xlink" xml:space="preserve" xmlns:serif="http://www.serif.com/" style="fill-rule:evenodd;clip-rule:evenodd;stroke-linejoin:round;stroke-miterlimit:2;">
    <g transform="matrix(2,0,0,2,0,0)">
        <path d="M55.272,77.989C55.272,77.989 55.448,80.196 59.625,82.144L55.214,89.548C55.214,89.548 52.942,90.712 52.67,91.632L60.281,91.671L66.494,81.612C66.494,81.612 63.169,80.096 65.053,76.718L66.623,73.121C66.623,73.121 57.413,73.371 55.272,77.989Z" style="fill:rgb(187,67,23);"/>
        <path d="M30.255,31.649C30.255,31.649 28.338,29.248 27.197,29.601L28.481,32.555L27.837,32.969L25.44,30.925L26.202,34.164L25.644,34.612L23.233,33.327L23.594,36.393L22.814,37.12L21.262,35.749L21.291,38.609L30.255,31.649ZM13.372,31.46C13.372,31.46 14.685,33.78 16.078,33.779L15.662,31.18L16.521,31.014L18.493,33.172L18.756,30.477L19.532,30.263L21.779,31.836L22.429,29.371L23.548,28.994L24.808,30.428L25.759,28.203L13.372,31.46Z" style="fill:rgb(227,226,196);"/>
        <path d="M12.525,31.469C12.525,31.469 4.941,17.432 17.507,14.369C17.507,14.369 43.268,-0.181 44.815,26.224L44.561,34.618L45.485,37.495C45.485,37.495 61.414,43.427 72.945,63.916C72.945,63.916 77.663,69.764 84.359,73.701C87.909,75.789 92.016,77.34 96.271,77.196C96.271,77.196 91.922,82.881 79.012,78.949C79.012,78.949 71.874,76.868 67.787,73.546C67.787,73.546 47.429,75.963 56.336,83.694L53.066,89.065L48.692,93.228L41.975,93.613C41.975,93.613 43.216,91.426 40.295,93.358L41.031,90.781L43.256,90.077L46.431,86.162L47.558,83.155C47.558,83.155 35.45,76.204 38.364,64.506L36.949,58.243L31.607,36.771C31.607,36.771 22.47,44.1 20.906,38.324L27.788,32.137L30.376,26.375C30.376,26.375 18.135,31.654 12.525,31.469Z" style="fill:rgb(239,119,46);"/>
        <clipPath id="_clip1">
            <path d="M12.525,31.469C12.525,31.469 4.941,17.432 17.507,14.369C17.507,14.369 43.268,-0.181 44.815,26.224L44.561,34.618L45.485,37.495C45.485,37.495 61.414,43.427 72.945,63.916C72.945,63.916 77.663,69.764 84.359,73.701C87.909,75.789 92.016,77.34 96.271,77.196C96.271,77.196 91.922,82.881 79.012,78.949C79.012,78.949 71.874,76.868 67.787,73.546C67.787,73.546 47.429,75.963 56.336,83.694L53.066,89.065L48.692,93.228L41.975,93.613C41.975,93.613 43.216,91.426 40.295,93.358L41.031,90.781L43.256,90.077L46.431,86.162L47.558,83.155C47.558,83.155 35.45,76.204 38.364,64.506L36.949,58.243L31.607,36.771C31.607,36.771 22.47,44.1 20.906,38.324L27.788,32.137L30.376,26.375C30.376,26.375 18.135,31.654 12.525,31.469Z"/>
        </clipPath>
        <g clip-path="url(#_clip1)">
            <g transform="matrix(1.1392,0,0,1.04459,-6.9602,-2.33433)">
                <path d="M36.094,12.359C36.094,12.359 40.39,18.485 41.642,24.124C43.573,32.828 43.702,41.927 51.923,37.622L47.466,34.572L45.637,20.981L39.77,12.162L36.094,12.359Z" style="fill:rgb(180,43,9);fill-opacity:0.34;"/>
            </g>
            <path d="M72.775,64.143C72.775,64.143 79.025,85.737 95.942,77.663L72.775,64.143Z" style="fill:rgb(180,43,9);fill-opacity:0.39;"/>
            <path d="M37.544,51.057C37.544,51.057 36.495,55.767 30.924,52.52C30.924,52.52 29.173,46.532 26.152,50.57L26.195,51.384L27.728,50L27.728,50.732C27.728,50.732 25.674,52.356 26.43,53.112C26.43,53.112 27.741,51.157 28.732,52.52C28.732,52.52 37.229,63.972 42.672,52.52L37.544,51.057Z" style="fill:rgb(241,81,24);"/>
        </g>
        <g>
            <g transform="matrix(1.44878,0.2096,-0.189503,1.30987,-1.45138,-12.9581)">
                <ellipse cx="22.842" cy="20.033" rx="3.31" ry="4.556" style="fill:rgb(206,18,5);"/>
            </g>
            <g transform="matrix(1.27193,0.184015,-0.184015,1.27193,2.47477,-11.7542)">
                <ellipse cx="22.842" cy="20.033" rx="3.31" ry="4.556" style="fill:rgb(248,239,214);"/>
                <clipPath id="_clip2">
                    <ellipse cx="22.842" cy="20.033" rx="3.31" ry="4.556"/>
                </clipPath>
                <g clip-path="url(#_clip2)">
                    <g transform="matrix(0.709516,-1.38778e-17,1.38778e-17,0.709516,4.58664,8.21301)">
                        <ellipse cx="22.842" cy="20.033" rx="3.31" ry="4.556" style="fill:rgb(26,17,22);"/>
                    </g>
                </g>
            </g>
            <g transform="matrix(1.61144,0.390395,-0.235453,0.971886,-1.84548,-3.79974)">
                <ellipse cx="11.233" cy="20.827" rx="0.181" ry="0.854" style="fill:rgb(26,17,22);"/>
            </g>
        </g>
        <g transform="matrix(0.997362,-0.0725921,0.0725921,0.997362,-3.49126,2.13034)">
            <path d="M34.696,49.543L31.249,47.908C31.249,47.908 30.51,45.524 28.921,45.574C28.921,45.574 29.822,46.332 29.954,47.029C29.954,47.029 27.508,46.396 27.744,47.879C27.744,47.879 28.679,47.773 29.599,48.504C29.599,48.504 32.673,52.931 35.161,52.489L34.696,49.543Z" style="fill:rgb(187,67,23);"/>
        </g>
        <g transform="matrix(1,0,0,1,-0.231958,-0.437323)">
            <path d="M37.544,51.057C37.544,51.057 36.495,55.767 30.924,52.52C30.924,52.52 29.173,46.532 26.152,50.57L26.195,51.384L27.728,50L27.728,50.732C27.728,50.732 25.674,52.356 26.43,53.112C26.43,53.112 27.741,51.157 28.732,52.52C28.732,52.52 37.229,63.972 42.672,52.52L37.544,51.057Z" style="fill:rgb(239,119,46);"/>
            <clipPath id="_clip3">
                <path d="M37.544,51.057C37.544,51.057 36.495,55.767 30.924,52.52C30.924,52.52 29.173,46.532 26.152,50.57L26.195,51.384L27.728,50L27.728,50.732C27.728,50.732 25.674,52.356 26.43,53.112C26.43,53.112 27.741,51.157 28.732,52.52C28.732,52.52 37.229,63.972 42.672,52.52L37.544,51.057Z"/>
            </clipPath>
            <g clip-path="url(#_clip3)">
                <g transform="matrix(1,0,0,1,0.231958,0.437323)">
                    <path d="M27.496,49.563L28.214,50C28.214,50 26.369,51.122 26.199,52.675L25.92,51.991L27.496,49.563Z" style="fill:rgb(241,81,24);"/>
                </g>
            </g>
        </g>
    </g>
</svg>
