<?xml version="1.0" encoding="UTF-8" standalone="no"?>
<!DOCTYPE svg PUBLIC "-//W3C//DTD SVG 1.1//EN" "http://www.w3.org/Graphics/SVG/1.1/DTD/svg11.dtd">
<svg width="100%" height="100%" viewBox="0 0 200 200" version="1.1" xmlns="http://www.w3.org/2000/svg" xmlns:xlink="http://www.w3.org/1999/xlink" xml:space="preserve" xmlns:serif="http://www.serif.com/" style="fill-rule:evenodd;clip-rule:evenodd;stroke-linejoin:round;stroke-miterlimit:2;">
    <g transform="matrix(1.99018,0.197938,-0.197938,1.99018,31.7017,-6.19268)">
        <path d="M8.234,76.547C8.234,76.547 6.546,72.932 8.471,72.156C10.396,71.379 10.014,75.367 10.014,75.367L8.234,76.547ZM11.876,75.765C11.876,75.765 10.188,72.149 12.113,71.373C14.037,70.597 13.656,74.585 13.656,74.585L11.876,75.765Z" style="fill:rgb(238,192,179);"/>
        <path d="M46.586,22.442C46.586,22.442 33.249,23.718 31.49,14.751L30.642,11.075C30.642,11.075 48.649,-8.851 57.568,9.021C57.568,9.021 70.368,46.977 69.687,59.584C69.687,59.584 71.839,75.395 61.469,85.837C61.469,85.837 36.394,93.189 28.993,91.584C28.993,91.584 20.798,82.928 13.408,79.24C10.573,77.825 7.857,77.142 5.766,77.958C5.766,77.958 7.01,76.198 9.08,74.955C10.561,74.066 12.464,73.441 14.636,73.914C14.636,73.914 26.142,45.456 50,48.492L46.586,22.442Z" style="fill:rgb(78,87,157);"/>
        <clipPath id="_clip1">
            <path d="M46.586,22.442C46.586,22.442 33.249,23.718 31.49,14.751L30.642,11.075C30.642,11.075 48.649,-8.851 57.568,9.021C57.568,9.021 70.368,46.977 69.687,59.584C69.687,59.584 71.839,75.395 61.469,85.837C61.469,85.837 36.394,93.189 28.993,91.584C28.993,91.584 20.798,82.928 13.408,79.24C10.573,77.825 7.857,77.142 5.766,77.958C5.766,77.958 7.01,76.198 9.08,74.955C10.561,74.066 12.464,73.441 14.636,73.914C14.636,73.914 26.142,45.456 50,48.492L46.586,22.442Z"/>
        </clipPath>
        <g clip-path="url(#_clip1)">
            <path d="M45.926,20.876C45.926,20.876 64.086,68.987 62.428,83.024L78.478,63.808C78.478,63.808 57.445,14.1 45.926,20.876Z" style="fill:rgb(126,138,185);"/>
            <g>
                <g transform="matrix(0.67466,0.738129,-0.738129,0.67466,53.9783,-8.36526)">
                    <ellipse cx="35.699" cy="58.696" rx="3.533" ry="5.83" style="fill:rgb(58,68,142);"/>
                </g>
                <g transform="matrix(0.33733,0.369065,-0.296188,0.27072,30.8032,35.2852)">
                    <ellipse cx="35.699" cy="58.696" rx="3.533" ry="5.83" style="fill:rgb(58,68,142);"/>
                </g>
                <g transform="matrix(0.33733,0.369065,-0.624113,0.570447,51.7823,9.78061)">
                    <ellipse cx="35.699" cy="58.696" rx="3.533" ry="5.83" style="fill:rgb(58,68,142);"/>
                </g>
                <g transform="matrix(0.0368824,0.276104,-0.49022,0.0654843,69.9753,38.118)">
                    <ellipse cx="35.699" cy="58.696" rx="3.533" ry="5.83" style="fill:rgb(58,68,142);"/>
                </g>
                <g transform="matrix(0.206214,0.224667,-0.221947,0.203717,36.9694,47.848)">
                    <ellipse cx="35.699" cy="58.696" rx="3.533" ry="5.83" style="fill:rgb(58,68,142);"/>
                </g>
            </g>
            <path d="M33.204,18.338C33.204,18.338 34.998,17.972 36.297,14.63C36.297,14.63 35.425,18.864 34.218,19.266C33.01,19.668 33.204,18.338 33.204,18.338Z" style="fill:rgb(58,68,142);"/>
            <ellipse cx="48.952" cy="15.015" rx="4.026" ry="3.523" style="fill:rgb(204,98,68);"/>
            <g transform="matrix(1.05379,0,0,1.04629,-2.65486,0.0509581)">
                <circle cx="45.505" cy="8.133" r="6.497" style="fill:white;"/>
                <clipPath id="_clip2">
                    <circle cx="45.505" cy="8.133" r="6.497"/>
                </clipPath>
                <g clip-path="url(#_clip2)">
                    <g transform="matrix(0.750972,0,0,0.756355,8.69426,2.86862)">
                        <circle cx="45.505" cy="8.133" r="6.497" style="fill:rgb(23,32,50);"/>
                    </g>
                </g>
            </g>
            <g transform="matrix(1,0,0,0.753418,-2.01586,22.8255)">
                <path d="M67.176,70.501L68.387,84.731C68.387,84.731 70.718,87.071 68.734,88.786L59.581,88.786L58.446,72.9L67.176,70.501Z" style="fill:rgb(49,61,155);fill-opacity:0.42;"/>
            </g>
            <g transform="matrix(0.904157,0,0,1.09022,4.52536,-6.36766)">
                <path d="M26.012,85.226C26.012,85.226 25.62,94.58 25.561,94.549C25.502,94.517 35.711,94.549 35.711,94.549C35.865,93.302 35.083,92.237 33.171,91.391L34.198,83.257L26.012,85.226Z" style="fill:rgb(66,76,156);"/>
            </g>
        </g>
        <g transform="matrix(0.43696,0,0,0.666097,18.4778,4.66258)">
            <ellipse cx="32.342" cy="13.307" rx="0.862" ry="1.323" style="fill:rgb(58,68,142);"/>
        </g>
        <g transform="matrix(0.904157,0,0,1.1356,5.53091,-10.6582)">
            <path d="M26.012,85.226C26.012,85.226 25.62,94.58 25.561,94.549C25.502,94.517 35.711,94.549 35.711,94.549C35.865,93.302 35.083,92.237 33.171,91.391L34.198,83.257L26.012,85.226Z" style="fill:rgb(78,87,157);"/>
        </g>
        <g transform="matrix(1,1.38778e-17,1.38778e-17,0.602531,-1.34589,33.95)">
            <path d="M66.506,69.693L68.387,84.731C68.387,84.731 70.718,87.071 68.734,88.786L59.581,88.786L58.255,73.482L66.506,69.693Z" style="fill:rgb(78,87,157);"/>
        </g>
    </g>
</svg>
