<svg xmlns="http://www.w3.org/2000/svg" xmlns:xlink="http://www.w3.org/1999/xlink" viewBox="0 0 94.89 171.8"><defs><style>.cls-1{fill:url(#linear-gradient);}.cls-2{fill:#f9916c;}.cls-3{fill:url(#linear-gradient-2);}.cls-4{fill:#fff;stroke:#000;stroke-miterlimit:10;stroke-width:0.59px;}.cls-5{fill:#366ec9;}.cls-6{fill:#f9aa8f;}.cls-7{fill:url(#linear-gradient-3);}.cls-8{fill:url(#linear-gradient-4);}.cls-9{fill:url(#linear-gradient-5);}.cls-10{fill:#e87e5d;}.cls-11{fill:#e26b47;}.cls-12{fill:url(#linear-gradient-6);}</style><linearGradient id="linear-gradient" x1="23.63" y1="35.02" x2="2.37" y2="11.38" gradientUnits="userSpaceOnUse"><stop offset="0" stop-color="#fbc19e"/><stop offset="0.48" stop-color="#ffb699"/><stop offset="1" stop-color="#f47e6d"/></linearGradient><linearGradient id="linear-gradient-2" x1="105.59" y1="99.49" x2="81.47" y2="89.33" xlink:href="#linear-gradient"/><linearGradient id="linear-gradient-3" x1="59.94" y1="3.23" x2="40.26" y2="31.37" xlink:href="#linear-gradient"/><linearGradient id="linear-gradient-4" x1="28.42" y1="71.92" x2="53.01" y2="35.9" gradientUnits="userSpaceOnUse"><stop offset="0.42" stop-color="#8cc474"/><stop offset="0.75" stop-color="#36b277"/></linearGradient><linearGradient id="linear-gradient-5" x1="50.49" y1="17.84" x2="48.74" y2="61.65" xlink:href="#linear-gradient-4"/><linearGradient id="linear-gradient-6" x1="90.66" y1="58.52" x2="73.31" y2="0.34" gradientUnits="userSpaceOnUse"><stop offset="0.32" stop-color="#8e241c"/><stop offset="0.75" stop-color="#64241c"/></linearGradient></defs><title>资源 4</title><g id="图层_2" data-name="图层 2"><g id="图层_1-2" data-name="图层 1"><path class="cls-1" d="M8.18,25.88S.9,20,.14,16.69,2,7.18,4.16,8.55,8,16.66,9.61,13.25s3.89,2,2.86,5.94"/><path class="cls-2" d="M30.65,62S9.85,54.59,6.42,27.74c-.5-3.92,4.71-10.9,7.4-9.59,7.78,3.78,11.7,17.08,22.12,17.08,6.51,0,3.69,29.23,3.69,29.23Z"/><path class="cls-2" d="M26.71,164.8c-4.47,3.44-6.22,3.15-6.59,5.39-.47,2.87,8.07,1.07,11.82.83s5.71-3.47,3.47-5.28c-2.67-2.14,3.6-10.91.25-8.94-1.68,1-5.78-.74-5.78-.74S29.51,162.64,26.71,164.8Z"/><path class="cls-2" d="M60.45,164.09c-4,4-6.22,3.15-6.59,5.38-.47,2.88,8.08,1.08,11.83.84s5.71-3.48,3.46-5.28c-2.66-2.15-1.2-14.45-5.18-8.93-1,1.41-4.21.5-4.21.5S62.31,162.24,60.45,164.09Z"/><path class="cls-3" d="M89.12,87.32s5.3,1.32,5.58,2.52.55,6.12-1.49,6.86-4.89,3.15-9.43-2.3S89.12,87.32,89.12,87.32Z"/><path class="cls-4" d="M35.94,35.23s7.37-.55,7.37-7.3l12-2s2.8,9.09,7.84,13-5.22,62.61-5.22,62.61L30.42,96.8Z"/><path class="cls-5" d="M33.24,86.51s-7,48-4.89,72.77c.28,3.29,7.89,0,7.89,0l20.49-69.4Z"/><path class="cls-5" d="M68.93,89.84s1.42,51.3.45,69c-.16,2.9-9.64.43-9.64.43l-18.6-71Z"/><path class="cls-2" d="M44.64,45.08c-.91-3.7-7.93-13-7.93-13S24.22,81.8,24.22,101.24c0,4.12,16.46,4.73,16.46,4.73S48.29,59.89,44.64,45.08Z"/><path class="cls-2" d="M63.72,32.08s-17.64,8.3-20.41,13.81C36.6,59.26,46,105.65,46,105.65s30.66,2.2,30.66-7.4C76.69,78.28,63.72,32.08,63.72,32.08Z"/><path class="cls-2" d="M59.51,33.05S87,36.38,91,84.07c.57,6.69-4.09,9.3-6.94,9.09-11-.81-4-29.33-28.64-27.27C46.84,66.6,45.05,13.17,59.51,33.05Z"/><path class="cls-6" d="M51.55,3.2A16,16,0,0,0,36,11.82c-.23.45-.48.88-.73,1.31A39.72,39.72,0,0,0,32,20.87c-.31.89.29,1.65,1.28,2.27a5.74,5.74,0,0,1,2.23,2.5,16,16,0,1,0,16-22.44Z"/><path class="cls-7" d="M39.57,9.47l-1.91-.2A15.94,15.94,0,0,0,36,11.82c-.23.45-.48.88-.73,1.31s-.52.91-.75,1.38a5,5,0,0,0,1.83,1.62s-2,2.7-2.12,4.5-1.62,1.73-2.16,1.24a3,3,0,0,0,1.25,1.27,5.84,5.84,0,0,1,2,2.17h0s-1.86-7.86,4.6-7.65,8.66,8.3,6.56,10.94-2.91,2.7-4.79,2.57c-.94-.06-.55.8.09,1.67a15.52,15.52,0,0,0,3.92,1.74h8.94a14.36,14.36,0,0,0,1.84-.66l3.38-8.06-1.75-7.3Z"/><path class="cls-8" d="M40.24,41.28s.59,4.66-7.4,21.32c-2.25,4.69.18,3,7.76,3,5.14,0,9.64-23.52,9.64-23.52S41.64,37.53,40.24,41.28Z"/><path class="cls-9" d="M36.46,27.39s-4.75,8-2.26,10.61,14.15,11.27,31.18-1.87a1.93,1.93,0,0,0,.7-1.89c-.47-2.42-1.79-7.77-4.36-8.33C58.4,25.18,41.66,37.29,36.46,27.39Z"/><path class="cls-10" d="M36.76,1.72a6.9,6.9,0,0,0,1.29,12.83l.2,0c6.88,1.69,20.21,4.23,15.45,9.31S48.87,37,50,43.21s8.87,14,10.77,5.24S72.24,38,76.24,43.21s8.13,4.71,8.45.69S80.88,9.73,58.8,2.54C47.45-1.16,40.71-.27,36.76,1.72Z"/><path class="cls-11" d="M50,43.21c1.15,6.19,8.87,14,10.77,5.24S72.24,38,76.24,43.21s8.13,4.71,8.45.69c.12-1.54-.41-6.94-2.37-13.41,1.16,4.54-1.82,5.9-4.88,4.74C74.11,34,73.79,29.6,69,33.4s-10-2.77-10.94-8.88-14.32-8.58-14.32-8.58h0c6.57,1.67,13.58,4.07,9.93,8C48.94,29,48.87,37,50,43.21Z"/><path class="cls-12" d="M81.9,29.15a2.25,2.25,0,0,0-.08-.24Z"/></g></g></svg>