<svg xmlns="http://www.w3.org/2000/svg" xmlns:xlink="http://www.w3.org/1999/xlink" viewBox="0 0 93.15 190"><defs><style>.cls-1{fill:#dfecf4;}.cls-2{fill:#f9aa8f;}.cls-3{fill:#40d3ba;}.cls-4{fill:url(#linear-gradient);}.cls-5{fill:#6161ad;}.cls-6{fill:url(#linear-gradient-2);}.cls-7{fill:url(#linear-gradient-3);}.cls-8{fill:url(#linear-gradient-4);}.cls-9{fill:url(#linear-gradient-5);}.cls-10{fill:#68370c;}.cls-11{fill:#5aedd1;}.cls-12{fill:none;stroke:#dfecf4;stroke-linecap:round;stroke-miterlimit:10;stroke-width:0.4px;}</style><linearGradient id="linear-gradient" x1="58.46" y1="44.7" x2="19.48" y2="61.39" gradientUnits="userSpaceOnUse"><stop offset="0" stop-color="#40d3ba"/><stop offset="0.35" stop-color="#34c5ac"/><stop offset="1" stop-color="#15a189"/></linearGradient><linearGradient id="linear-gradient-2" x1="54.88" y1="145.05" x2="-13.78" y2="58.36" xlink:href="#linear-gradient"/><linearGradient id="linear-gradient-3" x1="33.26" y1="122.92" x2="15.18" y2="63.16" xlink:href="#linear-gradient"/><linearGradient id="linear-gradient-4" x1="5.06" y1="66.05" x2="81.57" y2="87.14" xlink:href="#linear-gradient"/><linearGradient id="linear-gradient-5" x1="39.75" y1="42.22" x2="11.6" y2="-28.69" gradientUnits="userSpaceOnUse"><stop offset="0" stop-color="#f78e6b"/><stop offset="1" stop-color="#f9aa8f"/></linearGradient></defs><title>医生</title><g id="图层_2" data-name="图层 2"><g id="图层_1-2" data-name="图层 1"><path class="cls-1" d="M76,43.31A38.64,38.64,0,0,0,78.09,30.4c-.14-6.91-2.62-9.17-2.62-9.17S87,18.93,88.78,30.77s4.29,10.61,4.29,10.61,1.31,15.42-7,22c0,0-5.42-6.53-7-12.83"/><path class="cls-2" d="M75.43,48.78a7.53,7.53,0,0,1,0-4.42c.73-2.4,4.92-4.07,4.7-2.91a4.53,4.53,0,0,1-1.46,2.18s3.42,3,.73,8.44"/><path class="cls-3" d="M34.77,30.77s8.85,3.63,19.76,17.59c9.29,11.89,18.14,3.55,20.57.81A1.69,1.69,0,0,1,77,48.72a3.64,3.64,0,0,1,2.39,3.35S69,79.56,49.36,66"/><path class="cls-4" d="M66.7,54.4c-3.55.67-7.81-.46-12.17-6-9-11.52-16.59-16-19-17.22l.28,2.18L49.36,66a24.53,24.53,0,0,0,4.4,2.44l.2.08.68.26c2.31.7,5.13-.73,3.22-6.35C56,57,64.85,54.8,66.7,54.4Z"/><path class="cls-5" d="M18,178.47l-.58,10.19A1.27,1.27,0,0,0,18.71,190H24a.52.52,0,0,0,.32-.93l-2.45-1.95a1.18,1.18,0,0,1-.4-1.28l2.43-8"/><path class="cls-5" d="M36.84,177.18l.54,11.61A1.27,1.27,0,0,0,38.65,190H44a.52.52,0,0,0,.32-.93l-2.52-2a1.17,1.17,0,0,1-.43-1.15l1.39-8.56"/><path class="cls-3" d="M33.65,119.56l2.81,58.33s4,1.31,6.36,0c0,0,12.73-58.47,9.89-86.4s-27.27,8.94-27.27,8.94"/><path class="cls-6" d="M33.65,119.56l2.81,58.33s4,1.31,6.36,0c0,0,12.73-58.47,9.89-86.4s-27.27,8.94-27.27,8.94"/><path class="cls-3" d="M18.6,93.23l-1.74,85.24s3.56,1.75,6.76,0c0,0,20-56.14,18.45-87"/><path class="cls-7" d="M42.07,91.49,18.6,93.23l-.8,39.16h0c.18-8.6,2.52-15,13.31-15,7.17,0,9.47-5.57,10.21-9.3A101,101,0,0,0,42.07,91.49Z"/><path class="cls-3" d="M19.82,29.31s-7.06,1.43-7.4,11.14S15.91,79.84,14.59,93a1.92,1.92,0,0,0,1.31,2c5.92,1.92,27.77,8.1,37.15-2a2.11,2.11,0,0,0,.56-1.43c-.1-6.61-1.37-53.18-18.84-60.74"/><path class="cls-8" d="M20.33,87l7.32-7.15s6.59-8.84-2.21-12S23,45,23,45L12.72,49.82c.83,13.07,2.89,33,1.87,43.15a1.92,1.92,0,0,0,1.31,2c1.16.38,2.93.91,5.09,1.46C12.56,93.83,20.33,87,20.33,87Z"/><path class="cls-1" d="M18.6,29.71c.94.53,27.93,22,17.23,2.07a2.33,2.33,0,0,0-1-1C32.44,29.73,24.77,26.77,18.6,29.71Z"/><path class="cls-2" d="M41,13.16h0c-.9-4.5-3.89-7.8-8.55-7.8-5.63,0-10.2,4.83-10.2,10.77a10.55,10.55,0,0,0,1.34,4.16,8.18,8.18,0,0,1-.41,6.17,5.13,5.13,0,0,1-1.7,2.3c10.06,8.92,16,9,13.8,4.78a11.36,11.36,0,0,1-1.68-5.15,1.68,1.68,0,0,1,1.24-1.8,8.34,8.34,0,0,0,5.38-5,2,2,0,0,1,.92-1,3.42,3.42,0,0,0,.77-.5C42.65,19.44,41,13.16,41,13.16Z"/><path class="cls-9" d="M41,19.32c.23-1.56-1-5.18-.71-5.12a1.93,1.93,0,0,0,.86-.38c-.1-.41-.17-.66-.17-.66h0a12,12,0,0,0-1.22-3.41l-16.11.89a11,11,0,0,0-1,2.42l1.25,5.77-.59.89c.09.19.18.38.26.57a8.18,8.18,0,0,1-.41,6.17,5.13,5.13,0,0,1-1.7,2.3,38.5,38.5,0,0,0,9.72,6.7c-.23-.12-1.78-1-.08-1.44s-.93-1.52-2.14-3.46c-1-1.55,3.73-3.28,5.66-3.91-2.42.56-3.92-1.28-4.06-5.69-.17-4.88,5.89-6.74,8.23-5.92s1.21,7,1.21,7c.07-.15.14-.29.2-.44a2,2,0,0,1,.92-1,3.42,3.42,0,0,0,.77-.5S40.75,20.89,41,19.32Z"/><path class="cls-10" d="M29,17.89h0a.66.66,0,0,0,.65-.52c.18-.86.69-2.51,2-2.83,1.82-.43,16.62-.65,14-9.23C43.43-2.06,36.46-.22,34.51,1.77a2.81,2.81,0,0,1-2,.86c-3,0-9.57.74-11.07,7.42-1.8,8,3,9.41,2.58,13.28a9.53,9.53,0,0,0,.24-6.28c-.94-3.72,4-4.41,4.12.18A.67.67,0,0,0,29,17.89Z"/><path class="cls-3" d="M16.86,30.84S-1.11,42,.05,63.81,22.16,84.94,22.16,84.94s3.35-1.41,4.37-3.9c0,0-19.49-8.3-9.67-23.14S24.78,34.35,16.86,30.84Z"/><path class="cls-11" d="M26.32,79.19C24.55,82.43,21.05,84.7,19,85.8a.53.53,0,0,0,.12,1,7.12,7.12,0,0,1,.76.24.56.56,0,0,0,.44,0c1-.6,5.49-3.32,7.32-7.15a.52.52,0,0,0-.26-.69L27,79A.53.53,0,0,0,26.32,79.19Z"/><circle class="cls-11" cx="37.69" cy="51.52" r="0.55"/><circle class="cls-11" cx="39.28" cy="62.07" r="0.55"/><path class="cls-11" d="M40.92,74.11a.55.55,0,0,1-1.1,0,.55.55,0,1,1,1.1,0Z"/><path class="cls-11" d="M41.46,88.74a.55.55,0,1,1-.54-.54A.54.54,0,0,1,41.46,88.74Z"/><path class="cls-1" d="M36.63,67.61a1.1,1.1,0,0,1-.3-1A20.42,20.42,0,0,0,36,56.64c-2.16-7.92-8-13.23-13.07-11.86s-7.4,8.93-5.25,16.84a20.4,20.4,0,0,0,4.73,8.74,1.11,1.11,0,0,1,.27,1.07,1.66,1.66,0,0,0,1.65,2.13,1.67,1.67,0,0,0,1.56-2.11,1.64,1.64,0,0,0-.79-1,17.51,17.51,0,0,1-5.73-9.26c-1.9-7-.1-13.58,4-14.7s9,3.64,10.93,10.62c1.06,3.93,1,8-.25,10.89a1.69,1.69,0,0,0,0,1.7,1.64,1.64,0,0,0,1.47.82,1.67,1.67,0,0,0,1.58-2.11A1.64,1.64,0,0,0,36.63,67.61Z"/><path class="cls-12" d="M22,45.67s-8.4-18.29.5-18.76"/><path class="cls-12" d="M34.19,29.37s9,.34,9.14,15.19,3.38,15.51,3.38,15.51"/><path class="cls-1" d="M47.07,58a1.54,1.54,0,1,1-2.73,1.44A1.54,1.54,0,1,1,47.07,58Z"/><path class="cls-1" d="M47.07,58a1.54,1.54,0,1,1-2.73,1.44A1.54,1.54,0,1,1,47.07,58Z"/><circle class="cls-1" cx="46.81" cy="60.87" r="3.03"/></g></g></svg>